<?xml version="1.0" encoding="UTF-8"?><svg id="Camada_2" xmlns="http://www.w3.org/2000/svg" viewBox="0 0 762.76 268.65"><defs><style>.cls-1{fill:#fb8500;}.cls-1,.cls-2,.cls-3,.cls-4{stroke-width:0px;}.cls-2{fill:#219ebc;}.cls-3{fill:#fff;}.cls-4{fill:#f5f4f4;}</style></defs><g id="Camada_1-2"><path class="cls-4" d="m300.49,245.04l-85.02-172.46h39.58c5.98,0,11.27,1.57,15.88,4.72,4.6,3.15,8.01,7.36,10.24,12.66l26.81,63.16,27.38-63.39c2.38-5.37,5.87-9.57,10.47-12.6,4.6-3.03,9.82-4.54,15.65-4.54h39.35l-85.02,172.46h-15.3Z"/><path class="cls-4" d="m426.7,245.04c-8.13,0-14.48-2.28-19.04-6.85-4.56-4.56-6.85-10.76-6.85-18.58V72.57h29.68c6.6,0,12.06,2.17,16.39,6.5,4.33,4.33,6.5,9.8,6.5,16.39v149.57h-26.69Z"/><path class="cls-4" d="m467.31,245.04V72.57h77.54c18.41,0,32.94,3.76,43.61,11.27,10.66,7.52,15.99,18.98,15.99,34.4,0,10.35-2.36,18.52-7.08,24.51-4.72,5.98-10.22,9.74-16.51,11.28v.34c2.99.61,6.02,1.78,9.09,3.51,3.07,1.73,6.25,4.12,9.55,7.19,3.3,3.07,5.96,7.27,8,12.6,2.03,5.33,3.05,11.29,3.05,17.89,0,11.96-3.11,21.78-9.32,29.45-6.21,7.67-13.83,12.93-22.84,15.76-9.01,2.84-19.43,4.26-31.24,4.26h-79.85Zm52.69-106.08h19.33c4.22,0,7.29-1.25,9.2-3.74,1.92-2.49,2.88-5.31,2.88-8.46,0-7.98-4.1-12-12.31-12.08h-19.1v24.28Zm0,63.85h24.05c3.91,0,7.17-1.13,9.78-3.39,2.61-2.26,3.91-5.65,3.91-10.18,0-4.06-1.38-7.4-4.14-10.01-2.76-2.61-6.1-3.91-10.01-3.91h-23.59v27.5Z"/><path class="cls-2" d="m617.04,108.24c-4.33-4.3-6.5-9.74-6.5-16.34v-19.33l152.22-.31-52.86,88.6-.03.02c-5.34,8.95-15,14.43-25.42,14.43h-32.81l10.8-18.45,3.48-5.95,21.25-36.23h-53.73c-6.6,0-12.06-2.14-16.4-6.44Z"/><path class="cls-4" d="m684.87,202.81h55.11c6.59,0,12.04,2.17,16.33,6.5,4.3,4.34,6.45,9.8,6.45,16.4v19.33l-152.22.33,27.94-47.65c4.87-8.3,13.77-13.41,23.4-13.41h34.03"/><line class="cls-3" x1="695.91" y1="184.31" x2="684.87" y2="202.81"/><path class="cls-1" d="m117.17,207.06l10.33-23.9,43.61-100.86c7.09-16.39-1.62-35.3-18.68-40.57l-30-9.27-56.88,131.56-23.36,54.04c-8.26,19.11,1.38,41.22,21.01,48.16h0c15.47,5.48,30.92,2.06,41.84-13.85l67.51-124.01-55.37,78.7Z"/><path class="cls-2" d="m49.16,229.83c17.45-1.34,30.51-16.56,29.17-34.01l-4.69-61.29-8.18-106.82C64.2,11.19,49.79-1.18,33.26.09L0,2.64l10.47,136.73,4.69,61.29c1.34,17.45,16.56,30.51,34.01,29.17h0Z"/></g></svg>